<?xml version="1.0" standalone="no"?>
<!DOCTYPE svg PUBLIC "-//W3C//DTD SVG 20010904//EN"
 "http://www.w3.org/TR/2001/REC-SVG-20010904/DTD/svg10.dtd">
<svg version="1.0" xmlns="http://www.w3.org/2000/svg"
 width="200.000000pt" height="200.000000pt" viewBox="0 0 200.000000 200.000000"
 preserveAspectRatio="xMidYMid meet">
<metadata>
Created by potrace 1.10, written by Peter Selinger 2001-2011
</metadata>
<g transform="translate(0.000000,200.000000) scale(0.100000,-0.100000)"
fill="#000000" stroke="none">
<path d="M810 1478 c0 -4 -8 -8 -19 -8 -10 0 -30 -9 -43 -20 -14 -10 -29 -16
-34 -12 -5 4 -6 3 -2 -2 4 -4 -2 -18 -14 -30 -47 -49 -51 -75 -54 -356 -3
-203 0 -269 10 -285 13 -21 15 -70 3 -82 -11 -10 -8 -25 3 -18 6 4 20 26 31
51 29 61 115 137 176 155 101 29 190 9 286 -64 26 -20 64 -41 85 -47 48 -13
138 -13 163 0 40 22 19 -18 -36 -68 -72 -66 -131 -86 -234 -80 -65 4 -85 10
-136 41 -85 51 -141 64 -210 50 -52 -11 -104 -39 -105 -56 0 -4 8 -4 18 1 9 5
24 7 32 5 12 -4 13 -3 1 5 -10 7 1 13 42 22 31 6 62 8 68 5 5 -4 26 -7 46 -7
25 0 32 -3 22 -9 -12 -7 -12 -9 1 -9 8 0 37 -11 64 -25 27 -14 56 -25 63 -25
8 0 11 -4 8 -10 -3 -5 2 -10 12 -11 42 -2 121 -8 163 -13 35 -4 39 -3 20 4
-22 8 -21 9 12 7 26 -2 34 0 28 8 -6 7 1 15 20 22 22 8 30 8 30 0 0 -6 9 -1
20 11 11 12 20 26 20 31 0 6 6 8 13 5 14 -5 39 17 36 32 -3 19 1 35 9 30 4 -2
8 8 7 24 0 15 -4 26 -9 22 -5 -3 -6 3 -2 13 6 18 6 18 -15 -1 -22 -18 -22 -18
-15 0 5 14 4 16 -6 8 -14 -11 -139 -21 -132 -11 5 9 -26 20 -37 14 -4 -3 -14
3 -21 15 -7 11 -18 20 -25 20 -7 0 -13 5 -13 10 0 6 -9 10 -21 10 -11 0 -18 4
-14 9 3 5 -12 15 -32 21 -21 7 -43 17 -50 22 -6 5 -26 8 -45 7 -18 -2 -49 -2
-68 -1 l-35 2 0 258 c0 141 -3 269 -7 283 -6 21 -15 28 -43 31 -19 2 -35 0
-35 -4z m60 -282 c0 -148 -3 -272 -5 -276 -3 -4 -17 -11 -32 -15 -38 -9 -102
-58 -135 -102 -26 -34 -29 -61 -6 -47 6 4 6 -2 -1 -15 -7 -11 -14 -21 -17 -21
-3 0 -2 5 1 10 3 6 3 15 0 21 -12 18 -5 546 7 581 16 46 43 81 80 103 31 18
85 35 101 31 5 -1 8 -122 7 -270z"/>
</g>
</svg>
